<svg width="15" height="21" viewBox="0 0 15 21" fill="none" xmlns="http://www.w3.org/2000/svg">
<path fill-rule="evenodd" clip-rule="evenodd" d="M7.69829 19.8892C10.1136 17.5699 14.5454 13.3145 14.5454 8.40581C14.5454 4.51342 11.2893 0.917526 7.27272 0.917526C3.25611 0.917526 0 4.51342 0 8.40581C0 13.3145 4.43179 17.5699 6.84715 19.8892C6.99732 20.0333 7.13969 20.1701 7.27272 20.299C7.40575 20.1701 7.54812 20.0333 7.69829 19.8892ZM7.27274 11.4892C9.03001 11.4892 10.4546 10.1087 10.4546 8.40581C10.4546 6.70289 9.03001 5.3224 7.27274 5.3224C5.51546 5.3224 4.09091 6.70289 4.09091 8.40581C4.09091 10.1087 5.51546 11.4892 7.27274 11.4892Z" fill="#18519F"/>
</svg>
