<svg width="15" height="21" viewBox="0 0 15 21" fill="none" xmlns="http://www.w3.org/2000/svg">
<path fill-rule="evenodd" clip-rule="evenodd" d="M7.69829 19.8891C10.1136 17.5699 14.5454 13.3144 14.5454 8.40577C14.5454 4.51337 11.2893 0.91748 7.27272 0.91748C3.25611 0.91748 0 4.51337 0 8.40577C0 13.3144 4.43179 17.5699 6.84715 19.8891C6.99732 20.0333 7.13969 20.17 7.27272 20.2989C7.40575 20.17 7.54812 20.0333 7.69829 19.8891ZM7.27274 11.4891C9.03001 11.4891 10.4546 10.1086 10.4546 8.40568C10.4546 6.70276 9.03001 5.32227 7.27274 5.32227C5.51546 5.32227 4.09091 6.70276 4.09091 8.40568C4.09091 10.1086 5.51546 11.4891 7.27274 11.4891Z" fill="white"/>
</svg>
