<svg width="880" height="305" viewBox="0 0 880 305" fill="none" xmlns="http://www.w3.org/2000/svg">
<rect y="151" width="342" height="2" fill="#FF0000"/>
<path d="M412.6 98.7644L339.054 141.489L339 161.485L413.021 204.204L486.573 161.485L486.633 141.489L412.6 98.7644ZM412.612 102.784L479.69 141.495L413.081 180.189L345.997 141.477L412.612 102.784Z" fill="#18519F"/>
<path d="M757.391 133.168L732.794 90.5816L709.176 104.299L654.012 72.2562C653.784 72.124 653.471 72.1421 653.135 72.3403C652.455 72.7309 651.908 73.6862 651.908 74.4673C651.908 74.8578 652.041 75.1282 652.269 75.2604L708.269 107.789L708.19 133.162L731.099 146.381L731.015 175.743C731.015 176.002 731.183 176.266 731.526 176.464C732.205 176.855 733.311 176.849 733.984 176.458C734.321 176.266 734.489 176.008 734.489 175.755L734.573 146.423L757.391 133.168ZM711.677 131.162L711.713 117.733L723.368 137.909L711.677 131.162Z" fill="#18519F"/>
<path d="M633.232 0L581.356 30.1377L558.604 16.9194C558.382 16.7932 558.063 16.8052 557.726 17.0035C557.047 17.3941 556.494 18.3554 556.5 19.1365C556.5 19.521 556.632 19.7974 556.861 19.9235L577.9 32.1445L461.627 99.6839L461.567 119.679L518.354 152.455L462.102 185.128L462.047 205.124L634.777 304.807L879.94 162.399L880 142.403L633.232 0ZM680.756 254.115C613.87 215.121 603.874 195.961 607.396 186.738C616.112 163.907 714.586 173.52 727.564 176.23C728.502 176.428 729.428 175.821 729.626 174.878C729.818 173.941 729.217 173.015 728.274 172.823C727.168 172.589 615.054 156.931 604.144 185.488C598.319 200.732 622.268 223.858 677.293 256.116L634.831 280.78L469.05 185.116L537.403 145.407L542.59 142.391L537.397 139.387L468.57 99.6658L581.356 34.1572L630.401 62.6486C630.335 62.6126 630.292 62.5345 630.25 62.4744C630.467 62.7508 630.839 62.8229 631.278 62.5645C631.958 62.168 632.517 61.2187 632.517 60.4376C632.511 60.047 632.372 59.7707 632.144 59.6445C632.15 59.6445 632.15 59.6445 632.15 59.6445H632.144L584.812 32.1565L633.238 4.02557L873.057 142.421L680.756 254.115Z" fill="#18519F"/>
<path d="M649.293 69.5645L637.037 62.4446C636.814 62.3184 636.508 62.3304 636.165 62.5287C635.48 62.9193 634.927 63.8806 634.927 64.6617C634.933 65.0462 635.065 65.3166 635.287 65.4488L647.55 72.5686C647.472 72.5265 647.424 72.4424 647.37 72.3643C647.586 72.6647 647.977 72.7429 648.434 72.4785C649.113 72.0879 649.66 71.1386 649.66 70.3515C649.66 69.967 649.516 69.6906 649.293 69.5645Z" fill="#18519F"/>
<path d="M739.43 175.604C738.949 175.604 738.468 175.406 738.12 175.009C737.495 174.288 737.561 173.189 738.282 172.558L746.337 165.504C747.058 164.873 748.158 164.946 748.789 165.667C749.421 166.388 749.349 167.487 748.627 168.118L740.572 175.172C740.248 175.466 739.845 175.604 739.43 175.604Z" fill="#18519F"/>
<path d="M726.783 170.246C726.158 170.246 725.562 169.909 725.25 169.333L719.726 159.058C719.269 158.211 719.588 157.16 720.435 156.703C721.283 156.247 722.335 156.565 722.791 157.412L728.31 167.68C728.766 168.528 728.448 169.579 727.606 170.036C727.342 170.174 727.059 170.246 726.783 170.246Z" fill="#18519F"/>
<path d="M737.976 170.246C737.825 170.246 737.657 170.222 737.501 170.174C736.581 169.915 736.04 168.954 736.304 168.035L737.759 162.898C738.024 161.978 738.991 161.438 739.905 161.702C740.831 161.966 741.366 162.928 741.101 163.847L739.647 168.978C739.43 169.747 738.733 170.246 737.976 170.246Z" fill="#18519F"/>
</svg>
