<svg width="14" height="24" viewBox="0 0 14 24" fill="none" xmlns="http://www.w3.org/2000/svg">
<path fill-rule="evenodd" clip-rule="evenodd" d="M2 0.979492C0.895431 0.979492 0 1.87492 0 2.97949V21.2682C0 22.3727 0.89543 23.2682 2 23.2682H12C13.1046 23.2682 14 22.3727 14 21.2682V2.97949C14 1.87492 13.1046 0.979492 12 0.979492H2ZM3 2.91748C2.44772 2.91748 2 3.3652 2 3.91748V18.3917C2 18.944 2.44772 19.3917 3 19.3917H11C11.5523 19.3917 12 18.944 12 18.3917V3.91748C12 3.3652 11.5523 2.91748 11 2.91748H3Z" fill="white"/>
</svg>
