<svg width="14" height="24" viewBox="0 0 14 24" fill="none" xmlns="http://www.w3.org/2000/svg">
<path fill-rule="evenodd" clip-rule="evenodd" d="M2 0.979385C0.895431 0.979385 0 1.87482 0 2.97939V21.268C0 22.3726 0.89543 23.268 2 23.268H12C13.1046 23.268 14 22.3726 14 21.268V2.97939C14 1.87482 13.1046 0.979385 12 0.979385H2ZM3 2.91753C2.44772 2.91753 2 3.36524 2 3.91753V18.3918C2 18.944 2.44772 19.3918 3 19.3918H11C11.5523 19.3918 12 18.944 12 18.3918V3.91753C12 3.36524 11.5523 2.91753 11 2.91753H3Z" fill="#18519F"/>
</svg>
